<mxfile host="app.diagrams.net" modified="2021-06-29T14:56:30.217Z" agent="5.0 (Windows NT 10.0; Win64; x64) AppleWebKit/537.36 (KHTML, like Gecko) Chrome/91.0.4472.77 Safari/537.36" etag="Cyd1NKx2EyCib5sGcN9R" version="14.8.1" type="github">
  <diagram id="wqai5OO_GHD3gkw0xoKo" name="第 1 页">
    <mxGraphModel dx="1252" dy="577" grid="1" gridSize="10" guides="1" tooltips="1" connect="1" arrows="1" fold="1" page="1" pageScale="1" pageWidth="827" pageHeight="1169" math="0" shadow="0">
      <root>
        <mxCell id="0" />
        <mxCell id="1" parent="0" />
        <mxCell id="X0NTeLyTnEgscOcAS5K3-22" style="edgeStyle=none;rounded=0;orthogonalLoop=1;jettySize=auto;html=1;" edge="1" parent="1" source="X0NTeLyTnEgscOcAS5K3-1" target="X0NTeLyTnEgscOcAS5K3-11">
          <mxGeometry relative="1" as="geometry" />
        </mxCell>
        <mxCell id="X0NTeLyTnEgscOcAS5K3-25" value="" style="edgeStyle=none;rounded=0;orthogonalLoop=1;jettySize=auto;html=1;" edge="1" parent="1" source="X0NTeLyTnEgscOcAS5K3-1" target="X0NTeLyTnEgscOcAS5K3-14">
          <mxGeometry relative="1" as="geometry" />
        </mxCell>
        <mxCell id="X0NTeLyTnEgscOcAS5K3-26" style="edgeStyle=none;rounded=0;orthogonalLoop=1;jettySize=auto;html=1;entryX=0.5;entryY=0;entryDx=0;entryDy=0;" edge="1" parent="1" source="X0NTeLyTnEgscOcAS5K3-1" target="X0NTeLyTnEgscOcAS5K3-12">
          <mxGeometry relative="1" as="geometry" />
        </mxCell>
        <mxCell id="X0NTeLyTnEgscOcAS5K3-28" style="edgeStyle=none;rounded=0;orthogonalLoop=1;jettySize=auto;html=1;entryX=0.5;entryY=0;entryDx=0;entryDy=0;" edge="1" parent="1" source="X0NTeLyTnEgscOcAS5K3-1" target="X0NTeLyTnEgscOcAS5K3-13">
          <mxGeometry relative="1" as="geometry">
            <mxPoint x="590.0000000000002" y="289.9999999999999" as="targetPoint" />
          </mxGeometry>
        </mxCell>
        <mxCell id="X0NTeLyTnEgscOcAS5K3-1" value="商城首页" style="rounded=0;whiteSpace=wrap;html=1;" vertex="1" parent="1">
          <mxGeometry x="195" y="220" width="120" height="30" as="geometry" />
        </mxCell>
        <mxCell id="X0NTeLyTnEgscOcAS5K3-23" style="edgeStyle=none;rounded=0;orthogonalLoop=1;jettySize=auto;html=1;entryX=0.451;entryY=-0.05;entryDx=0;entryDy=0;entryPerimeter=0;" edge="1" parent="1" source="X0NTeLyTnEgscOcAS5K3-2" target="X0NTeLyTnEgscOcAS5K3-11">
          <mxGeometry relative="1" as="geometry">
            <mxPoint x="260" y="289.9999999999999" as="targetPoint" />
          </mxGeometry>
        </mxCell>
        <mxCell id="X0NTeLyTnEgscOcAS5K3-24" style="edgeStyle=none;rounded=0;orthogonalLoop=1;jettySize=auto;html=1;" edge="1" parent="1" source="X0NTeLyTnEgscOcAS5K3-2" target="X0NTeLyTnEgscOcAS5K3-12">
          <mxGeometry relative="1" as="geometry" />
        </mxCell>
        <mxCell id="X0NTeLyTnEgscOcAS5K3-27" style="edgeStyle=none;rounded=0;orthogonalLoop=1;jettySize=auto;html=1;entryX=0.55;entryY=0.039;entryDx=0;entryDy=0;entryPerimeter=0;" edge="1" parent="1" source="X0NTeLyTnEgscOcAS5K3-2" target="X0NTeLyTnEgscOcAS5K3-13">
          <mxGeometry relative="1" as="geometry" />
        </mxCell>
        <mxCell id="X0NTeLyTnEgscOcAS5K3-2" value="后台系统" style="rounded=0;whiteSpace=wrap;html=1;" vertex="1" parent="1">
          <mxGeometry x="374" y="220" width="120" height="30" as="geometry" />
        </mxCell>
        <mxCell id="X0NTeLyTnEgscOcAS5K3-5" style="edgeStyle=orthogonalEdgeStyle;rounded=0;orthogonalLoop=1;jettySize=auto;html=1;" edge="1" parent="1" source="X0NTeLyTnEgscOcAS5K3-3" target="X0NTeLyTnEgscOcAS5K3-2">
          <mxGeometry relative="1" as="geometry" />
        </mxCell>
        <mxCell id="X0NTeLyTnEgscOcAS5K3-7" style="rounded=0;orthogonalLoop=1;jettySize=auto;html=1;entryX=0.5;entryY=0;entryDx=0;entryDy=0;" edge="1" parent="1" source="X0NTeLyTnEgscOcAS5K3-3" target="X0NTeLyTnEgscOcAS5K3-1">
          <mxGeometry relative="1" as="geometry" />
        </mxCell>
        <mxCell id="X0NTeLyTnEgscOcAS5K3-3" value="后台人员" style="shape=umlActor;verticalLabelPosition=bottom;verticalAlign=top;html=1;outlineConnect=0;" vertex="1" parent="1">
          <mxGeometry x="419" y="100" width="30" height="60" as="geometry" />
        </mxCell>
        <mxCell id="X0NTeLyTnEgscOcAS5K3-6" style="edgeStyle=orthogonalEdgeStyle;rounded=0;orthogonalLoop=1;jettySize=auto;html=1;" edge="1" parent="1" source="X0NTeLyTnEgscOcAS5K3-4" target="X0NTeLyTnEgscOcAS5K3-1">
          <mxGeometry relative="1" as="geometry" />
        </mxCell>
        <mxCell id="X0NTeLyTnEgscOcAS5K3-4" value="用户" style="shape=umlActor;verticalLabelPosition=bottom;verticalAlign=top;html=1;outlineConnect=0;" vertex="1" parent="1">
          <mxGeometry x="240" y="100" width="30" height="60" as="geometry" />
        </mxCell>
        <mxCell id="X0NTeLyTnEgscOcAS5K3-17" value="用户服务" style="verticalLabelPosition=bottom;html=1;verticalAlign=top;align=center;strokeColor=none;fillColor=#00BEF2;shape=mxgraph.azure.mysql_database;" vertex="1" parent="1">
          <mxGeometry x="120" y="370" width="37.5" height="50" as="geometry" />
        </mxCell>
        <mxCell id="X0NTeLyTnEgscOcAS5K3-11" value="商品服务" style="rounded=0;whiteSpace=wrap;html=1;verticalAlign=middle;" vertex="1" parent="1">
          <mxGeometry x="220" y="310" width="120" height="30" as="geometry" />
        </mxCell>
        <mxCell id="X0NTeLyTnEgscOcAS5K3-14" value="用户服务" style="rounded=0;whiteSpace=wrap;html=1;verticalAlign=middle;" vertex="1" parent="1">
          <mxGeometry x="70" y="310" width="120" height="30" as="geometry" />
        </mxCell>
        <mxCell id="X0NTeLyTnEgscOcAS5K3-12" value="库存服务" style="rounded=0;whiteSpace=wrap;html=1;verticalAlign=middle;" vertex="1" parent="1">
          <mxGeometry x="374" y="310" width="120" height="30" as="geometry" />
        </mxCell>
        <mxCell id="X0NTeLyTnEgscOcAS5K3-13" value="订单服务" style="rounded=0;whiteSpace=wrap;html=1;verticalAlign=middle;" vertex="1" parent="1">
          <mxGeometry x="530" y="310" width="120" height="30" as="geometry" />
        </mxCell>
      </root>
    </mxGraphModel>
  </diagram>
</mxfile>
